<?xml version="1.0" encoding="UTF-8"?>
<!-- Created with Inkscape (http://www.inkscape.org/) -->
<svg class="watch" width="300" height="136" version="1.1" viewBox="0 0 300 136" xml:space="preserve" xmlns="http://www.w3.org/2000/svg"><path d="m107.96 91.04v-34.442h3.468q.986 0 1.36.374t.51 1.292l.408 5.372q1.768-3.604 4.352-5.61 2.618-2.04 6.12-2.04 1.428 0 2.584.34 1.156.306 2.142.884l-.782 4.522q-.238.85-1.054.85-.476 0-1.462-.306-.986-.34-2.754-.34-3.162 0-5.304 1.836-2.108 1.836-3.536 5.338v21.93zm41.038-34.986q3.094 0 5.712 1.054 2.618 1.02 4.522 2.992 1.904 1.938 2.958 4.828 1.088 2.856 1.088 6.528 0 1.428-.306 1.904t-1.156.476h-22.916q.068 3.264.884 5.678t2.244 4.046q1.428 1.598 3.4 2.414 1.972.782 4.42.782 2.278 0 3.91-.51 1.666-.544 2.856-1.156t1.972-1.122q.816-.544 1.394-.544.748 0 1.156.578l1.7 2.21q-1.122 1.36-2.686 2.38-1.564.986-3.366 1.632-1.768.646-3.672.952-1.904.34-3.774.34-3.57 0-6.596-1.19-2.992-1.224-5.202-3.536-2.176-2.346-3.4-5.78t-1.224-7.888q0-3.604 1.088-6.732 1.122-3.128 3.196-5.406 2.074-2.312 5.066-3.604 2.992-1.326 6.732-1.326zm.136 4.454q-4.386 0-6.902 2.55-2.516 2.516-3.128 7.004h18.734q0-2.108-.578-3.842-.578-1.768-1.7-3.026-1.122-1.292-2.754-1.972-1.598-.714-3.672-.714zm22.066 30.532v-50.082h6.086v20.604q2.142-2.482 4.896-3.978 2.788-1.53 6.358-1.53 2.992 0 5.406 1.122t4.114 3.366q1.7 2.21 2.618 5.508.918 3.264.918 7.548 0 3.808-1.02 7.106-1.02 3.264-2.958 5.678-1.904 2.38-4.692 3.774-2.754 1.36-6.222 1.36-3.332 0-5.678-1.292-2.312-1.292-4.046-3.604l-.306 3.128q-.272 1.292-1.564 1.292zm15.368-30.158q-2.958 0-5.202 1.36-2.21 1.36-4.08 3.842v16.66q1.632 2.244 3.604 3.162 2.006.918 4.454.918 4.828 0 7.412-3.434t2.584-9.792q0-3.366-.612-5.78-.578-2.414-1.7-3.944-1.122-1.564-2.754-2.278t-3.706-.714zm22.644 30.158v-50.082h6.086v20.604q2.142-2.482 4.896-3.978 2.788-1.53 6.358-1.53 2.992 0 5.406 1.122t4.114 3.366q1.7 2.21 2.618 5.508.918 3.264.918 7.548 0 3.808-1.02 7.106-1.02 3.264-2.958 5.678-1.904 2.38-4.692 3.774-2.754 1.36-6.222 1.36-3.332 0-5.678-1.292-2.312-1.292-4.046-3.604l-.306 3.128q-.272 1.292-1.564 1.292zm15.368-30.158q-2.958 0-5.202 1.36-2.21 1.36-4.08 3.842v16.66q1.632 2.244 3.604 3.162 2.006.918 4.454.918 4.828 0 7.412-3.434t2.584-9.792q0-3.366-.612-5.78-.578-2.414-1.7-3.944-1.122-1.564-2.754-2.278t-3.706-.714zm29.172-19.924v50.082h-6.052v-50.082zm24.31 15.096q3.094 0 5.712 1.054 2.618 1.02 4.522 2.992 1.904 1.938 2.958 4.828 1.088 2.856 1.088 6.528 0 1.428-.306 1.904t-1.156.476h-22.916q.068 3.264.884 5.678t2.244 4.046q1.428 1.598 3.4 2.414 1.972.782 4.42.782 2.278 0 3.91-.51 1.666-.544 2.856-1.156t1.972-1.122q.816-.544 1.394-.544.748 0 1.156.578l1.7 2.21q-1.122 1.36-2.686 2.38-1.564.986-3.366 1.632-1.768.646-3.672.952-1.904.34-3.774.34-3.57 0-6.596-1.19-2.992-1.224-5.202-3.536-2.176-2.346-3.4-5.78t-1.224-7.888q0-3.604 1.088-6.732 1.122-3.128 3.196-5.406 2.074-2.312 5.066-3.604 2.992-1.326 6.732-1.326zm.136 4.454q-4.386 0-6.902 2.55-2.516 2.516-3.128 7.004h18.734q0-2.108-.578-3.842-.578-1.768-1.7-3.026-1.122-1.292-2.754-1.972-1.598-.714-3.672-.714z" style="font-variant-numeric:slashed-zero" aria-label="rebble"/><path d="m44 24c-.60405 0-1.2045.01674-1.8027.04102-.16513.0067-.32948.01491-.49414.02344-.34735.01799-.69191.04426-1.0371.07031-.86564.06532-1.727.14673-2.5781.26172-.87027.11758-1.7285.26956-2.582.4375-.19051.03748-.38069.0753-.57031.11524-.83637.17619-1.668.36865-2.4863.5918-.02945.008-.05847.0173-.08789.02539-.8021.22054-1.5918.47012-2.375.73438-.19808.06683-.39498.13551-.5918.20508-.79931.28253-1.5916.57756-2.3691.9043l-.002.002c-.76248.32047-1.5099.66972-2.25 1.0312-.21004.10261-.4188.20666-.62695.3125-.70771.35982-1.4086.73257-2.0938 1.1289-.05204.03011-.10435.05953-.15625.08984-.69284.40457-1.3689.83278-2.0371 1.2734-.17167.11323-.34173.22819-.51172.34375-.68795.46756-1.3679.94648-2.0273 1.4512l-.002.002c-.49308.37739-.97865.7647-1.4551 1.1621l.01563.01563c-1.0253.85553-2.0102 1.7592-2.9551 2.7012l-8.9237-8.9239v24h24l-9.4668-9.4668c.94467-.94447 1.9399-1.8366 2.9844-2.6719.0051-.0041.01054-.0077.01563-.01172.42752-.3415.86542-.67013 1.3086-.99219.17805-.12933.35856-.25473.53906-.38086.30655-.21429.61622-.42404.92969-.62891.20442-.13357.4099-.26699.61719-.39648.3343-.20886.67404-.40936 1.0156-.60742.2424-.14056.48451-.28099.73047-.41602.40346-.22146.81186-.43632 1.2246-.64258.22015-.11004.4433-.21468.66602-.32031.33519-.15894.67283-.31215 1.0137-.46094.20831-.09097.4166-.1824.62695-.26953.4233-.17524.85187-.34256 1.2832-.50195.12881-.04763.25526-.10029.38477-.14648.04895-.01746.09938-.03157.14844-.04883.49434-.17378.99398-.3357 1.498-.48828.21747-.06588.43704-.12564.65625-.1875.38127-.10751.76403-.2095 1.1504-.30469.20928-.05161.41818-.10441.62891-.15234.5464-.12417 1.0967-.2388 1.6523-.33789.05104-.0091.10123-.02041.15234-.0293.59358-.1032 1.1935-.18785 1.7969-.26172.20946-.02567.42028-.04628.63086-.06836.42354-.04435.84948-.08172 1.2773-.11133.22152-.01535.44339-.03163.66602-.04297.61937-.0315 1.2417-.05273 1.8691-.05273.61233 0 1.2215.01689 1.8262.04687.14604.0072.28998.02228.43555.03125.44505.02741.88962.05628 1.3301.09961.24824.02443.49353.06042.74023.08984.33734.04022.6754.07753 1.0098.12695.28908.04274.57457.095.86133.14453.27854.0481.5577.094.83398.14844.30489.06009.60617.12956.9082.19727.27525.06168.55143.12154.82422.18945.25619.06381.50972.13388.76367.20312.31474.08578.62825.17356.93945.26758.24183.07309.48108.15052.7207.22852.29842.09709.59573.19618.89062.30078.25669.09109.51168.1865.76562.2832.274.10429.54765.20958.81836.32031.26696.10925.53125.22247.79492.33789.2477.10838.49355.22024.73828.33398.27282.12687.54543.25522.81445.38867.23803.11802.474.24019.70898.36328.27083.14194.53996.28696.80664.43555.21951.12224.43571.24833.65234.375.26422.15457.52727.30964.78711.4707.20822.12901.4138.26142.61914.39453.28037.18183.56106.36532.83594.55469.16953.11674.33651.23787.50391.35742.28282.2021.56519.40326.8418.61328.14932.1133.29393.23208.44141.34766.31051.24349.61974.4888.92188.74219.0075.0063.01597.0113.02344.01758.04664.03916.09028.08171.13672.12109.35726.30321.71164.60902 1.0566.92578.10728.09843.21034.20107.31641.30078.29967.2819.59885.56546.88867.85742l.0039.0039c.0146.01471.02839.03019.04297.04492 1.8885 1.9096 3.5637 4.0301 4.9883 6.3242.007.01121.01453.02198.02148.0332.0015.0025.0024.0053.0039.0078.28514.46057.55958.92815.82422 1.4023.0011.002.0028.0038.0039.0059v.002c.2668.47835.52422.9635.76953 1.4551.24037.48169.46836.9691.6875 1.4629.0047.01067.0109.02057.01563.03125.0026.0059.0052.01171.0078.01758.20773.47.40382.94732.5918 1.4277.01992.05088.04085.10135.06055.15234.17876.4631.34782.93013.50781 1.4023.02116.0624.04167.12495.0625.1875.1572.47258.30538.95048.44336 1.4316.01604.05588.0311.11197.04687.16797.14223.50524.27593 1.0133.39648 1.5273.0014.0059.0025.01171.0039.01758.0018.0078.004.0156.0059.02344.12626.54125.24014 1.0882.3418 1.6387.10168.55062.19112 1.1048.26758 1.6641.0011.0079.0028.01555.0039.02344.0024.01749.0035.03523.0059.05273.07402.55004.1365 1.1044.18555 1.6621.09313 1.0594.15035 2.1305.15035 3.2148 0 4.2122-.72644 8.2478-2.0469 12h8.3672c1.0851-3.818 1.6797-7.8399 1.6797-12 0-1.0825-.0535-2.1517-.13086-3.2148-.0517-.71123-.11976-1.4176-.20508-2.1191-1.1091-9.1207-5.0157-17.391-10.842-23.92-.42379-.47494-.85709-.94031-1.3008-1.3965-.02569-.02642-.05041-.05373-.07617-.08008-.0077-.0079-.0157-.01553-.02344-.02344-.40279-.41145-.81586-.81151-1.2344-1.207-.08838-.08359-.1746-.16909-.26367-.25195-.37417-.34784-.7565-.68666-1.1426-1.0215-.14223-.12344-.28392-.2475-.42773-.36914-.35514-.30016-.71742-.59185-1.082-.88086-.18606-.14758-.37208-.29483-.56055-.43945-.3479-.26678-.70069-.52668-1.0566-.7832-.19842-.1431-.39679-.28593-.59766-.42578-.35569-.24748-.71493-.48941-1.0781-.72656-.22276-.14555-.44636-.29004-.67188-.43164-.34428-.21602-.69241-.42614-1.043-.63281-.26395-.15572-.52945-.30866-.79688-.45898-.31612-.17758-.63422-.35155-.95508-.52148-.30449-.16136-.61127-.31829-.91992-.47266-.31798-.15894-.6367-.3154-.95898-.4668-.29794-.14005-.59886-.27469-.90039-.4082-.33245-.14711-.66527-.2926-1.002-.43164-.32443-.13407-.65222-.26025-.98047-.38672-.32241-.12414-.64472-.24853-.9707-.36524-.33111-.1186-.6653-.22903-1-.33984-.33506-.11088-.66927-.2232-1.0078-.32617-.34814-.10594-.70102-.20138-1.0527-.29883-.32306-.08947-.64473-.18145-.9707-.26367-.3981-.10046-.80083-.18981-1.2031-.2793-.28633-.06366-.571-.13142-.85938-.18945-.40354-.08125-.81133-.14868-1.2188-.21875-.31242-.05371-.62289-.1131-.9375-.16016-.39985-.05983-.80377-.10536-1.207-.1543-.31062-.03769-.61909-.08213-.93164-.11328-.41029-.04089-.82479-.06622-1.2383-.0957-.32116-.0229-.63989-.05438-.96289-.07031-.72532-.03577-1.4554-.05469-2.1895-.05469zm-42.322 32c-1.0848 3.8176-1.6777 7.8404-1.6777 12 0 24.253 19.747 44 44 44 .6171 0 1.2308-.0157 1.8418-.041.18233-.008.36316-.0215.54492-.0312.4288-.0231.85576-.0506 1.2812-.0859.20883-.0174.417-.0364.625-.0566.40932-.0399.81667-.0856 1.2227-.13672.20137-.0254.40299-.05.60352-.0781.46864-.0656.9346-.14039 1.3984-.2207.12276-.0213.24673-.0383.36914-.0605.60106-.10937 1.1967-.23159 1.7891-.36523.07195-.0162.14303-.0342.21484-.0508.5019-.11591 1.0009-.24202 1.4961-.375.1672-.0449.33358-.0918.5-.13867.41466-.11667.82668-.23874 1.2363-.36719.155-.0486.31058-.0962.46484-.14649.53821-.1754 1.0726-.35926 1.6016-.55468.0077-.003.01573-.005.02344-.008.0019-.00071.0039-.001.0059-.002.58307-.21589 1.1612-.44395 1.7324-.68359.0078-.003.01562-.006.02344-.01.03499-.0147.06858-.0321.10352-.0469.50238-.21266.99948-.43346 1.4922-.66407.11407-.0534.2263-.10971.33984-.16406.4442-.21259.88445-.43128 1.3203-.6582.08682-.0452.17328-.0909.25976-.13672.47055-.24899.93618-.50611 1.3965-.77149.06161-.0355.12412-.0696.18555-.10546 1.0315-.60134 2.0355-1.2432 3.0117-1.9238.08969-.0625.17837-.12629.26758-.18946.40066-.28377.79685-.57443 1.1875-.87109.09283-.0705.18508-.1417.27734-.21289.3915-.30221.77727-.61085 1.1582-.92578.05249-.0434.10787-.0833.16016-.12695l-.002-.002c1.0254-.85572 2.0035-1.7653 2.9473-2.709l8.9199 8.9203v-24h-24l9.459 9.459c-1.1847 1.1829-2.4482 2.2865-3.7871 3.2969-.12238.09227-.24164.18856-.36523.2793-.04295.03153-.08776.06045-.13086.0918-.44343.32278-.89501.63484-1.3535.9375-.20573.13574-.41438.26878-.62305.40039-.38502.2429-.77516.47657-1.1699.70508-.23772.13761-.47566.27395-.7168.40625-.44924.24642-.9045.4834-1.3652.71094-.23024.11376-.4623.22504-.69531.33398-.39736.1857-.7999.3637-1.2051.53516-.27515.11651-.55145.23002-.83008.33984-.47665.18772-.95691.36742-1.4434.53516-.21492.0742-.43167.14463-.64844.21484-.53308.17248-1.0715.33441-1.6152.48242-.13429.0366-.26743.0762-.40234.11133-.5911.15349-1.1884.28823-1.791.41211-.19272.0397-.38622.0767-.58008.11328-.65177.12282-1.3088.23494-1.9727.32226-.01248.002-.02463.004-.03711.006-.0052.00068-.0104.001-.01562.002-.68302.0888-1.3736.15102-2.0684.20117-.17457.0126-.35012.0231-.52539.0332-.70113.0404-1.4056.0702-2.1172.0702-9.342 0-17.836-3.5315-24.225-9.3359-.42589-.38696-.84125-.78461-1.248-1.1914-.4068-.4068-.80444-.82216-1.1914-1.248-5.8045-6.3884-9.3359-14.883-9.3359-24.225 0-4.2113.725-8.2486 2.0449-12h-8.3672z" color="#000000" color-rendering="auto" image-rendering="auto" shape-rendering="auto" solid-color="#000000" style="isolation:auto;mix-blend-mode:normal;text-decoration-color:#000000;text-decoration-line:none;text-decoration-style:solid;text-indent:0;text-transform:none;white-space:normal"/><path class="arrows minute" d="M 67.966,53.18 44,68.007" fill="none" stroke="#ff4700" stroke-width="8"/><path class="arrows hour" d="m58 59.34-14 8.6622" fill="none" stroke="#ff4700" stroke-width="8"/><path class="circle" d="m39.5 67.64a4.5 4.5 0 109 0 4.5 4.5 0 10-9 0" fill="#ff4700"/><path d="m20 36v-32h48v32" fill="none" stroke="#000" stroke-width="8"/><path d="m20 100.04v32h48v-32" fill="none" stroke="#000" stroke-width="8"/></svg>
