<?xml version="1.0" encoding="UTF-8" standalone="no"?>
<!-- Created with Inkscape (http://www.inkscape.org/) -->

<svg
   width="32"
   height="32"
   version="1.1"
   viewBox="0 0 32 32"
   id="svg11"
   xmlns="http://www.w3.org/2000/svg"
   xmlns:svg="http://www.w3.org/2000/svg">
  <defs
     id="defs11" />
  <path
     d="M 10,15.0001 H 7 L 4,18 v 4.0001 h 3 z"
     id="path1"
     style="fill:#ffffff;stroke:#000000;stroke-width:2;stroke-linecap:round;stroke-linejoin:round" />
  <path
     d="m 7,20.0001 3,-5 L 16,15 V 9 L 15,8 V 4 L 19,8.0001 25,8 v 4 l 2,1 -1,3 -3,1 v 8 l 1,2 h -7 v -5 l -3,1.31e-4 -1,2 v 0.99987 l 1,2 H 7 v -3.9999 l 1,-2 z"
     id="path2"
     style="fill:#ffffff;stroke:#000000;stroke-width:2;stroke-linecap:round;stroke-linejoin:round" />
  <path
     d="m 16,16.0001 -4,2 V 11 l 3,-2.9999 1,1 z"
     id="path3"
     style="fill:#ffffff;stroke:#000000;stroke-width:2;stroke-linecap:round;stroke-linejoin:round" />
  <path
     d="m 17,6.0001 5,-2 5,3.0001 -2,0.9999 -6,10e-5 z"
     id="path4"
     style="fill:#ffffff;stroke:#000000;stroke-width:2;stroke-linecap:round;stroke-linejoin:round" />
  <path
     d="m 19,11.0002 v 2"
     id="path5"
     style="fill:none;stroke:#000000;stroke-width:2;stroke-linecap:round;stroke-linejoin:round" />
  <path
     d="m 22,11.0002 v 2"
     id="path6"
     style="fill:none;stroke:#000000;stroke-width:2;stroke-linecap:round;stroke-linejoin:round" />
  <path
     d="m 20,22.0001 v 3 l 1,2"
     id="path7"
     style="fill:none;stroke:#000000;stroke-width:2;stroke-linecap:round;stroke-linejoin:round" />
  <path
     d="m 14,22.0001 h -3 l -1,2 v 1 l 1,2"
     id="path8"
     style="fill:none;stroke:#000000;stroke-width:2;stroke-linecap:round;stroke-linejoin:round" />
</svg>
