<svg xmlns="http://www.w3.org/2000/svg" fill="none" viewBox="0 0 24 24" stroke-width="1.5" stroke="currentColor">
    <path stroke-linecap="round" stroke-linejoin="round" d="M12 16.5a7.5 7.5 0 100-15 7.5 7.5 0 000 15m0 0v1.5a2.25 2.25 0 01-2.25 2.25H6a2.25 2.25 0 01-2.25-2.25V15M12 16.5v-1.5M12 7.5v1.5m-3-6.214a2.238 2.238 0 011.631-1.059c.477-.156 1.024-.156 1.501 0a2.238 2.238 0 011.631 1.059l.331.993c.828 2.489.828 5.23 0 7.72-1.626 4.88-5.914 6.369-10.798 3.96-4.88-2.409-6.369-6.698-3.96-10.798.855-2.566 3.31-4.546 5.883-4.546z" />
</svg>